<svg id="Layer_1" data-name="Layer 1" xmlns="http://www.w3.org/2000/svg" viewBox="0 0 21.85 22.28"><path d="M23,9A113.48,113.48,0,0,0,7.2,10.35a7.65,7.65,0,0,1-.83,2.82.94.94,0,0,1-.75.51c-.59,0-.83-.7-.83-1.47a1.68,1.68,0,0,1,.42-1,6.06,6.06,0,0,0,.84-3.11c0-.14.08-.19.16-.19A.24.24,0,0,1,6.37,8,5.39,5.39,0,0,1,7.1,9.2c2.44-.35,4.89-.65,7.33-.89,0-.51,0-1,0-1.69A3.85,3.85,0,0,0,14,4.9a.43.43,0,0,1-.1-.25c0-.1.13-.21.29-.21a5,5,0,0,1,2,.59c.48.27.59.46.59.62a.89.89,0,0,1-.24.51,1.29,1.29,0,0,0-.29.67,11.3,11.3,0,0,0-.11,1.34c2.17-.18,4.35-.32,6.61-.37a8.52,8.52,0,0,0,.91-.11A2.59,2.59,0,0,1,24.88,8a6.64,6.64,0,0,1,1.21.89,1.87,1.87,0,0,1,.54,1c0,.43-.48.56-1.05.75a14.68,14.68,0,0,1-2.95.81c-.08,0-.14,0-.14-.11s.06-.11.24-.3a4.2,4.2,0,0,0,1.16-1.74c0-.22-.13-.33-.51-.33ZM10.56,20.29a.7.7,0,0,1-.45-.1A3.67,3.67,0,0,1,9.22,19c0-.08.08-.11.29-.13,1,0,2.05-.14,3.12-.25S16,18.2,17.5,18a4.32,4.32,0,0,0,1.26-.32,1.48,1.48,0,0,1,.67-.17,2.69,2.69,0,0,1,1.4.49.83.83,0,0,1,.43.78c0,.24-.27.4-.81.43-.38,0-1.29.05-1.83.08s-1.88.16-2.63.24c.54.46.67.65.67.92a1,1,0,0,1-.08.34,2.08,2.08,0,0,0-.21.76c-.08.69-.14,1.5-.19,2.66,2.5-.16,3.84-.16,5.37-.19A9,9,0,0,0,23,23.81a1.72,1.72,0,0,1,.62-.13,3.92,3.92,0,0,1,1.74.67,1.27,1.27,0,0,1,.6,1c0,.3-.16.38-.54.38a43.15,43.15,0,0,0-4.49-.3c-2.23,0-4,0-6,.22-3.66.32-6.34.72-7,.86a6.38,6.38,0,0,1-1,.19,1,1,0,0,1-.73-.25,4.21,4.21,0,0,1-.88-1c0-.11.1-.16.24-.19,1.07-.16,2.12-.27,3.65-.43,1.21-.16,3.07-.38,5.43-.57.05-1.15.11-2,.11-2.76a3.21,3.21,0,0,0-.27-1.8c-.51,0-1,.13-1.48.21s-1.13.19-2.23.32ZM13,12.39a.89.89,0,0,1-.32.62A16.25,16.25,0,0,1,10.48,15a10.49,10.49,0,0,1-3.06,1.61.72.72,0,0,1-.19,0c-.16,0-.27-.08-.27-.18s.06-.19.22-.3a10,10,0,0,0,3.3-3.17,2,2,0,0,0,.38-1c0-.22-.08-.35-.08-.51a.29.29,0,0,1,.29-.33,4.15,4.15,0,0,1,1.56.81C12.87,12.07,13,12.21,13,12.39Zm4.2-.86a1.2,1.2,0,0,0-.27-.94.47.47,0,0,1-.11-.21.28.28,0,0,1,.3-.27,5.27,5.27,0,0,1,1.69.67.51.51,0,0,1,.29.4.34.34,0,0,1-.1.25,1.45,1.45,0,0,0-.19.53,10,10,0,0,0-.11,1.51c0,.56.43.62,1,.62A14.94,14.94,0,0,0,21.18,14a8.83,8.83,0,0,1,1-.3,1.94,1.94,0,0,1,1.32.48.71.71,0,0,1,.24.49c0,.29-.24.51-.7.56a21.33,21.33,0,0,1-2.9.19c-1.4,0-2.21-.32-2.55-.83a3.16,3.16,0,0,1-.43-1.75Z" transform="translate(-4.79 -4.44)"/></svg>